<svg xmlns="http://www.w3.org/2000/svg" width="1200" height="760" viewBox="0 0 1200 760">
<rect width="100%" height="100%" fill="#ffffff"/>
<text x="70.0" y="48.0" font-family="Arial" font-size="24" font-weight="600" fill="#520671">Cycling Behavioural Regulation: Methods-Ready Summary</text>
<text x="70.0" y="75.0" font-family="Arial" font-size="13" font-weight="400" fill="#6e6c66">Generated from Strava activity data · 2026-09-23T16:24:48Z · rolling windows: 7 days / 30 days / 12 weeks</text>
<rect x="70" y="110" width="520" height="245" fill="#ffffff" stroke="#e8e5eb" stroke-width="1"/>
<text x="86.0" y="138.0" font-family="Arial" font-size="15" font-weight="600" fill="#520671">A</text>
<text x="116.0" y="138.0" font-family="Arial" font-size="15" font-weight="600" fill="#6e6c66">12-week load timeline</text>
<rect x="650" y="110" width="520" height="245" fill="#ffffff" stroke="#e8e5eb" stroke-width="1"/>
<text x="666.0" y="138.0" font-family="Arial" font-size="15" font-weight="600" fill="#520671">B</text>
<text x="696.0" y="138.0" font-family="Arial" font-size="15" font-weight="600" fill="#6e6c66">Power–cadence regulation space</text>
<rect x="70" y="430" width="520" height="245" fill="#ffffff" stroke="#e8e5eb" stroke-width="1"/>
<text x="86.0" y="458.0" font-family="Arial" font-size="15" font-weight="600" fill="#520671">C</text>
<text x="116.0" y="458.0" font-family="Arial" font-size="15" font-weight="600" fill="#6e6c66">Indoor/outdoor context balance</text>
<rect x="650" y="430" width="520" height="245" fill="#ffffff" stroke="#e8e5eb" stroke-width="1"/>
<text x="666.0" y="458.0" font-family="Arial" font-size="15" font-weight="600" fill="#520671">D</text>
<text x="696.0" y="458.0" font-family="Arial" font-size="15" font-weight="600" fill="#6e6c66">Current behavioural system state</text>
<line x1="110" y1="320" x2="550" y2="320" stroke="#e8e5eb"/>
<rect x="117.0" y="254.1" width="21.3" height="65.9" fill="#520671" opacity="0.82"/>
<rect x="153.7" y="303.5" width="21.3" height="16.5" fill="#520671" opacity="0.82"/>
<rect x="190.3" y="224.4" width="21.3" height="95.6" fill="#520671" opacity="0.82"/>
<rect x="227.0" y="175.0" width="21.3" height="145.0" fill="#520671" opacity="0.82"/>
<rect x="263.7" y="273.9" width="21.3" height="46.1" fill="#520671" opacity="0.82"/>
<rect x="300.3" y="275.5" width="21.3" height="44.5" fill="#520671" opacity="0.82"/>
<rect x="337.0" y="191.5" width="21.3" height="128.5" fill="#520671" opacity="0.82"/>
<rect x="373.7" y="196.4" width="21.3" height="123.6" fill="#520671" opacity="0.82"/>
<rect x="410.3" y="301.9" width="21.3" height="18.1" fill="#520671" opacity="0.82"/>
<rect x="447.0" y="254.1" width="21.3" height="65.9" fill="#520671" opacity="0.82"/>
<rect x="483.7" y="221.1" width="21.3" height="98.9" fill="#520671" opacity="0.82"/>
<rect x="520.3" y="267.3" width="21.3" height="52.7" fill="#520671" opacity="0.82"/>
<text x="110.0" y="345.0" font-family="Arial" font-size="11" font-weight="400" fill="#9a9890">weeks</text>
<text x="430.0" y="345.0" font-family="Arial" font-size="11" font-weight="400" fill="#9a9890">max 8.8 h/week</text>
<rect x="705" y="175" width="405" height="145" fill="#ffffff" stroke="#e8e5eb"/>
<circle cx="914.0" cy="209.5" r="5.5" fill="#6e6c66" opacity="0.75"/>
<circle cx="974.1" cy="262.6" r="5.5" fill="#520671" opacity="0.75"/>
<circle cx="908.8" cy="294.2" r="5.5" fill="#520671" opacity="0.75"/>
<circle cx="925.8" cy="228.1" r="5.5" fill="#6e6c66" opacity="0.75"/>
<circle cx="953.2" cy="219.5" r="5.5" fill="#6e6c66" opacity="0.75"/>
<circle cx="933.6" cy="298.5" r="5.5" fill="#520671" opacity="0.75"/>
<circle cx="770.3" cy="248.2" r="5.5" fill="#6e6c66" opacity="0.75"/>
<circle cx="884.0" cy="248.2" r="5.5" fill="#6e6c66" opacity="0.75"/>
<circle cx="1044.7" cy="218.1" r="5.5" fill="#520671" opacity="0.75"/>
<circle cx="933.6" cy="228.1" r="5.5" fill="#6e6c66" opacity="0.75"/>
<circle cx="921.9" cy="239.6" r="5.5" fill="#6e6c66" opacity="0.75"/>
<circle cx="948.0" cy="196.5" r="5.5" fill="#6e6c66" opacity="0.75"/>
<circle cx="870.9" cy="203.7" r="5.5" fill="#6e6c66" opacity="0.75"/>
<circle cx="893.1" cy="216.6" r="5.5" fill="#6e6c66" opacity="0.75"/>
<text x="705.0" y="345.0" font-family="Arial" font-size="11" font-weight="400" fill="#9a9890">cadence (rpm)</text>
<text x="1005.0" y="165.0" font-family="Arial" font-size="11" font-weight="400" fill="#9a9890">power (W)</text>
<circle cx="330" cy="570" r="75" fill="none" stroke="#e8e5eb" stroke-width="26"/>
<circle cx="330" cy="570" r="75" fill="none" stroke="#520671" stroke-width="26" stroke-dasharray="134.6 471.2" transform="rotate(-90 330 570)"/>
<text x="140.0" y="535.0" font-family="Arial" font-size="15" font-weight="600" fill="#520671">Indoor: 4</text>
<text x="140.0" y="568.0" font-family="Arial" font-size="15" font-weight="600" fill="#6e6c66">Outdoor: 10</text>
<text x="140.0" y="601.0" font-family="Arial" font-size="12" font-weight="400" fill="#9a9890">30-day observation window</text>
<rect x="690" y="505" width="200" height="55" fill="#ffffff" stroke="#e8e5eb"/>
<text x="702.0" y="527.0" font-family="Arial" font-size="11" font-weight="500" fill="#9a9890">7-day load</text>
<text x="702.0" y="548.0" font-family="Arial" font-size="18" font-weight="600" fill="#520671">5.2 h · 124.0 km</text>
<rect x="920" y="505" width="200" height="55" fill="#ffffff" stroke="#e8e5eb"/>
<text x="932.0" y="527.0" font-family="Arial" font-size="11" font-weight="500" fill="#9a9890">30-day volume</text>
<text x="932.0" y="548.0" font-family="Arial" font-size="18" font-weight="600" fill="#520671">17.3 h · 421.5 km</text>
<rect x="690" y="585" width="200" height="55" fill="#ffffff" stroke="#e8e5eb"/>
<text x="702.0" y="607.0" font-family="Arial" font-size="11" font-weight="500" fill="#9a9890">Mean power</text>
<text x="702.0" y="628.0" font-family="Arial" font-size="18" font-weight="600" fill="#520671">176.1 W</text>
<rect x="920" y="585" width="200" height="55" fill="#ffffff" stroke="#e8e5eb"/>
<text x="932.0" y="607.0" font-family="Arial" font-size="11" font-weight="500" fill="#9a9890">Mean cadence</text>
<text x="932.0" y="628.0" font-family="Arial" font-size="18" font-weight="600" fill="#520671">79.7 rpm</text>
<text x="690.0" y="650.0" font-family="Arial" font-size="12" font-weight="400" fill="#9a9890">Latest: 09/23/2026 Ono Gravel Ride · 2026-09-23</text>
</svg>
