<svg xmlns="http://www.w3.org/2000/svg" width="1200" height="760" viewBox="0 0 1200 760">
<rect width="100%" height="100%" fill="#ffffff"/>
<text x="70.0" y="48.0" font-family="Arial" font-size="24" font-weight="600" fill="#520671">Cycling Behavioural Regulation: Methods-Ready Summary</text>
<text x="70.0" y="75.0" font-family="Arial" font-size="13" font-weight="400" fill="#6e6c66">Generated from Strava activity data · 2026-05-03T00:11:56Z · rolling windows: 7 days / 30 days / 12 weeks</text>
<rect x="70" y="110" width="520" height="245" fill="#ffffff" stroke="#e8e5eb" stroke-width="1"/>
<text x="86.0" y="138.0" font-family="Arial" font-size="15" font-weight="600" fill="#520671">A</text>
<text x="116.0" y="138.0" font-family="Arial" font-size="15" font-weight="600" fill="#6e6c66">12-week load timeline</text>
<rect x="650" y="110" width="520" height="245" fill="#ffffff" stroke="#e8e5eb" stroke-width="1"/>
<text x="666.0" y="138.0" font-family="Arial" font-size="15" font-weight="600" fill="#520671">B</text>
<text x="696.0" y="138.0" font-family="Arial" font-size="15" font-weight="600" fill="#6e6c66">Power–cadence regulation space</text>
<rect x="70" y="430" width="520" height="245" fill="#ffffff" stroke="#e8e5eb" stroke-width="1"/>
<text x="86.0" y="458.0" font-family="Arial" font-size="15" font-weight="600" fill="#520671">C</text>
<text x="116.0" y="458.0" font-family="Arial" font-size="15" font-weight="600" fill="#6e6c66">Indoor/outdoor context balance</text>
<rect x="650" y="430" width="520" height="245" fill="#ffffff" stroke="#e8e5eb" stroke-width="1"/>
<text x="666.0" y="458.0" font-family="Arial" font-size="15" font-weight="600" fill="#520671">D</text>
<text x="696.0" y="458.0" font-family="Arial" font-size="15" font-weight="600" fill="#6e6c66">Current behavioural system state</text>
<line x1="110" y1="320" x2="550" y2="320" stroke="#e8e5eb"/>
<rect x="117.0" y="266.2" width="21.3" height="53.8" fill="#520671" opacity="0.82"/>
<rect x="153.7" y="275.6" width="21.3" height="44.4" fill="#520671" opacity="0.82"/>
<rect x="190.3" y="296.6" width="21.3" height="23.4" fill="#520671" opacity="0.82"/>
<rect x="227.0" y="273.2" width="21.3" height="46.8" fill="#520671" opacity="0.82"/>
<rect x="263.7" y="235.8" width="21.3" height="84.2" fill="#520671" opacity="0.82"/>
<rect x="300.3" y="263.9" width="21.3" height="56.1" fill="#520671" opacity="0.82"/>
<rect x="337.0" y="217.1" width="21.3" height="102.9" fill="#520671" opacity="0.82"/>
<rect x="373.7" y="228.8" width="21.3" height="91.2" fill="#520671" opacity="0.82"/>
<rect x="410.3" y="282.6" width="21.3" height="37.4" fill="#520671" opacity="0.82"/>
<rect x="447.0" y="182.0" width="21.3" height="138.0" fill="#520671" opacity="0.82"/>
<rect x="483.7" y="175.0" width="21.3" height="145.0" fill="#520671" opacity="0.82"/>
<rect x="520.3" y="320.0" width="21.3" height="0.0" fill="#520671" opacity="0.82"/>
<text x="110.0" y="345.0" font-family="Arial" font-size="11" font-weight="400" fill="#9a9890">weeks</text>
<text x="430.0" y="345.0" font-family="Arial" font-size="11" font-weight="400" fill="#9a9890">max 6.2 h/week</text>
<rect x="705" y="175" width="405" height="145" fill="#ffffff" stroke="#e8e5eb"/>
<circle cx="987.0" cy="238.8" r="5.5" fill="#6e6c66" opacity="0.75"/>
<circle cx="910.7" cy="219.5" r="5.5" fill="#6e6c66" opacity="0.75"/>
<circle cx="972.2" cy="209.8" r="5.5" fill="#6e6c66" opacity="0.75"/>
<circle cx="993.4" cy="223.3" r="5.5" fill="#6e6c66" opacity="0.75"/>
<circle cx="1004.0" cy="219.5" r="5.5" fill="#6e6c66" opacity="0.75"/>
<circle cx="984.9" cy="223.3" r="5.5" fill="#6e6c66" opacity="0.75"/>
<circle cx="993.4" cy="207.9" r="5.5" fill="#6e6c66" opacity="0.75"/>
<circle cx="811.0" cy="291.0" r="5.5" fill="#6e6c66" opacity="0.75"/>
<circle cx="982.8" cy="234.9" r="5.5" fill="#6e6c66" opacity="0.75"/>
<circle cx="891.6" cy="225.3" r="5.5" fill="#6e6c66" opacity="0.75"/>
<circle cx="936.1" cy="204.0" r="5.5" fill="#6e6c66" opacity="0.75"/>
<text x="705.0" y="345.0" font-family="Arial" font-size="11" font-weight="400" fill="#9a9890">cadence (rpm)</text>
<text x="1005.0" y="165.0" font-family="Arial" font-size="11" font-weight="400" fill="#9a9890">power (W)</text>
<circle cx="330" cy="570" r="75" fill="none" stroke="#e8e5eb" stroke-width="26"/>
<circle cx="330" cy="570" r="75" fill="none" stroke="#520671" stroke-width="26" stroke-dasharray="0.0 471.2" transform="rotate(-90 330 570)"/>
<text x="140.0" y="535.0" font-family="Arial" font-size="15" font-weight="600" fill="#520671">Indoor: 0</text>
<text x="140.0" y="568.0" font-family="Arial" font-size="15" font-weight="600" fill="#6e6c66">Outdoor: 11</text>
<text x="140.0" y="601.0" font-family="Arial" font-size="12" font-weight="400" fill="#9a9890">30-day observation window</text>
<rect x="690" y="505" width="200" height="55" fill="#ffffff" stroke="#e8e5eb"/>
<text x="702.0" y="527.0" font-family="Arial" font-size="11" font-weight="500" fill="#9a9890">7-day load</text>
<text x="702.0" y="548.0" font-family="Arial" font-size="18" font-weight="600" fill="#520671">1.3 h · 24.6 km</text>
<rect x="920" y="505" width="200" height="55" fill="#ffffff" stroke="#e8e5eb"/>
<text x="932.0" y="527.0" font-family="Arial" font-size="11" font-weight="500" fill="#9a9890">30-day volume</text>
<text x="932.0" y="548.0" font-family="Arial" font-size="18" font-weight="600" fill="#520671">17.6 h · 387.2 km</text>
<rect x="690" y="585" width="200" height="55" fill="#ffffff" stroke="#e8e5eb"/>
<text x="702.0" y="607.0" font-family="Arial" font-size="11" font-weight="500" fill="#9a9890">Mean power</text>
<text x="702.0" y="628.0" font-family="Arial" font-size="18" font-weight="600" fill="#520671">199.1 W</text>
<rect x="920" y="585" width="200" height="55" fill="#ffffff" stroke="#e8e5eb"/>
<text x="932.0" y="607.0" font-family="Arial" font-size="11" font-weight="500" fill="#9a9890">Mean cadence</text>
<text x="932.0" y="628.0" font-family="Arial" font-size="18" font-weight="600" fill="#520671">78.7 rpm</text>
<text x="690.0" y="650.0" font-family="Arial" font-size="12" font-weight="400" fill="#9a9890">Latest: 04/26/2026 Shirotai · 2026-04-26</text>
</svg>
